<mxfile host="app.diagrams.net" modified="2021-04-21T12:30:55.787Z" agent="5.0 (Macintosh; Intel Mac OS X 10_15_7) AppleWebKit/537.36 (KHTML, like Gecko) Chrome/89.0.4389.114 Safari/537.36" etag="Rnz6TlL1dBe1tQNcKob7" version="14.6.2" type="github">
  <diagram id="pWVgIorgCEQsXyrbZfvu" name="Page-1">
    <mxGraphModel dx="1255" dy="2012" grid="1" gridSize="10" guides="1" tooltips="1" connect="1" arrows="1" fold="1" page="1" pageScale="1" pageWidth="827" pageHeight="1169" math="0" shadow="0">
      <root>
        <mxCell id="0" />
        <mxCell id="1" parent="0" />
        <mxCell id="c6ffai6J4IfeZ5ahLLE4-14" value="" style="edgeStyle=orthogonalEdgeStyle;rounded=0;orthogonalLoop=1;jettySize=auto;html=1;" parent="1" source="c6ffai6J4IfeZ5ahLLE4-1" target="c6ffai6J4IfeZ5ahLLE4-13" edge="1">
          <mxGeometry relative="1" as="geometry">
            <Array as="points">
              <mxPoint x="320" y="90" />
              <mxPoint x="250" y="90" />
            </Array>
          </mxGeometry>
        </mxCell>
        <mxCell id="mTs4i2KGGRuWr2ubLSMz-3" value="do" style="edgeLabel;html=1;align=center;verticalAlign=middle;resizable=0;points=[];" parent="c6ffai6J4IfeZ5ahLLE4-14" vertex="1" connectable="0">
          <mxGeometry x="0.68" y="-3" relative="1" as="geometry">
            <mxPoint as="offset" />
          </mxGeometry>
        </mxCell>
        <mxCell id="c6ffai6J4IfeZ5ahLLE4-16" value="" style="edgeStyle=orthogonalEdgeStyle;rounded=0;orthogonalLoop=1;jettySize=auto;html=1;" parent="1" source="c6ffai6J4IfeZ5ahLLE4-1" target="c6ffai6J4IfeZ5ahLLE4-15" edge="1">
          <mxGeometry relative="1" as="geometry" />
        </mxCell>
        <mxCell id="c6ffai6J4IfeZ5ahLLE4-20" value="" style="edgeStyle=orthogonalEdgeStyle;rounded=0;orthogonalLoop=1;jettySize=auto;html=1;entryX=1;entryY=0.5;entryDx=0;entryDy=0;" parent="1" source="c6ffai6J4IfeZ5ahLLE4-1" target="F8pmwGIE2MLGV_qBVy-j-1" edge="1">
          <mxGeometry relative="1" as="geometry">
            <Array as="points">
              <mxPoint x="410" y="160" />
              <mxPoint x="410" y="470" />
            </Array>
          </mxGeometry>
        </mxCell>
        <mxCell id="F8pmwGIE2MLGV_qBVy-j-7" value="撤销" style="edgeLabel;html=1;align=center;verticalAlign=middle;resizable=0;points=[];" vertex="1" connectable="0" parent="c6ffai6J4IfeZ5ahLLE4-20">
          <mxGeometry x="0.5543" relative="1" as="geometry">
            <mxPoint as="offset" />
          </mxGeometry>
        </mxCell>
        <mxCell id="c6ffai6J4IfeZ5ahLLE4-1" value="AUTO_CHECK" style="rounded=0;whiteSpace=wrap;html=1;" parent="1" vertex="1">
          <mxGeometry x="270" y="130" width="120" height="60" as="geometry" />
        </mxCell>
        <mxCell id="c6ffai6J4IfeZ5ahLLE4-4" value="" style="group" parent="1" vertex="1" connectable="0">
          <mxGeometry x="80" y="310" width="80" height="80" as="geometry" />
        </mxCell>
        <mxCell id="c6ffai6J4IfeZ5ahLLE4-2" value="" style="ellipse;whiteSpace=wrap;html=1;aspect=fixed;fillColor=#f8cecc;strokeColor=#b85450;" parent="c6ffai6J4IfeZ5ahLLE4-4" vertex="1">
          <mxGeometry width="80" height="80" as="geometry" />
        </mxCell>
        <mxCell id="c6ffai6J4IfeZ5ahLLE4-3" value="" style="ellipse;whiteSpace=wrap;html=1;aspect=fixed;" parent="c6ffai6J4IfeZ5ahLLE4-4" vertex="1">
          <mxGeometry x="10" y="10" width="60" height="60" as="geometry" />
        </mxCell>
        <mxCell id="c6ffai6J4IfeZ5ahLLE4-5" value="" style="endArrow=classic;html=1;exitX=1;exitY=0;exitDx=0;exitDy=0;entryX=0;entryY=0.5;entryDx=0;entryDy=0;" parent="1" source="c6ffai6J4IfeZ5ahLLE4-2" target="c6ffai6J4IfeZ5ahLLE4-1" edge="1">
          <mxGeometry width="50" height="50" relative="1" as="geometry">
            <mxPoint x="280" y="400" as="sourcePoint" />
            <mxPoint x="330" y="350" as="targetPoint" />
          </mxGeometry>
        </mxCell>
        <mxCell id="c6ffai6J4IfeZ5ahLLE4-6" value="登记" style="edgeLabel;html=1;align=center;verticalAlign=middle;resizable=0;points=[];" parent="c6ffai6J4IfeZ5ahLLE4-5" vertex="1" connectable="0">
          <mxGeometry x="0.0356" y="2" relative="1" as="geometry">
            <mxPoint as="offset" />
          </mxGeometry>
        </mxCell>
        <mxCell id="c6ffai6J4IfeZ5ahLLE4-13" value="创建特征&lt;br&gt;atlas_feature" style="shape=document;whiteSpace=wrap;html=1;boundedLbl=1;rounded=0;dashed=1;" parent="1" vertex="1">
          <mxGeometry x="190" y="-10" width="120" height="60" as="geometry" />
        </mxCell>
        <mxCell id="c6ffai6J4IfeZ5ahLLE4-18" value="" style="edgeStyle=orthogonalEdgeStyle;rounded=0;orthogonalLoop=1;jettySize=auto;html=1;" parent="1" source="c6ffai6J4IfeZ5ahLLE4-15" target="c6ffai6J4IfeZ5ahLLE4-17" edge="1">
          <mxGeometry relative="1" as="geometry" />
        </mxCell>
        <mxCell id="c6ffai6J4IfeZ5ahLLE4-22" value="" style="edgeStyle=orthogonalEdgeStyle;rounded=0;orthogonalLoop=1;jettySize=auto;html=1;entryX=1;entryY=0.5;entryDx=0;entryDy=0;" parent="1" source="c6ffai6J4IfeZ5ahLLE4-15" target="c6ffai6J4IfeZ5ahLLE4-19" edge="1">
          <mxGeometry relative="1" as="geometry">
            <mxPoint x="530" y="270" as="targetPoint" />
            <Array as="points">
              <mxPoint x="530" y="360" />
            </Array>
          </mxGeometry>
        </mxCell>
        <mxCell id="c6ffai6J4IfeZ5ahLLE4-26" value="驳回" style="edgeLabel;html=1;align=center;verticalAlign=middle;resizable=0;points=[];" parent="c6ffai6J4IfeZ5ahLLE4-22" vertex="1" connectable="0">
          <mxGeometry x="-0.5097" y="-1" relative="1" as="geometry">
            <mxPoint as="offset" />
          </mxGeometry>
        </mxCell>
        <mxCell id="c6ffai6J4IfeZ5ahLLE4-15" value="SOURCE_AUDIT" style="rounded=0;whiteSpace=wrap;html=1;" parent="1" vertex="1">
          <mxGeometry x="470" y="130" width="120" height="60" as="geometry" />
        </mxCell>
        <mxCell id="c6ffai6J4IfeZ5ahLLE4-24" value="" style="edgeStyle=orthogonalEdgeStyle;rounded=0;orthogonalLoop=1;jettySize=auto;html=1;entryX=1;entryY=0.5;entryDx=0;entryDy=0;" parent="1" source="c6ffai6J4IfeZ5ahLLE4-17" target="c6ffai6J4IfeZ5ahLLE4-19" edge="1">
          <mxGeometry relative="1" as="geometry">
            <mxPoint x="730" y="270" as="targetPoint" />
            <Array as="points">
              <mxPoint x="730" y="360" />
            </Array>
          </mxGeometry>
        </mxCell>
        <mxCell id="c6ffai6J4IfeZ5ahLLE4-27" value="驳回" style="edgeLabel;html=1;align=center;verticalAlign=middle;resizable=0;points=[];" parent="c6ffai6J4IfeZ5ahLLE4-24" vertex="1" connectable="0">
          <mxGeometry x="-0.6902" relative="1" as="geometry">
            <mxPoint as="offset" />
          </mxGeometry>
        </mxCell>
        <mxCell id="6ihYYFcUG0NwCiwKLXXo-2" value="" style="edgeStyle=orthogonalEdgeStyle;rounded=0;orthogonalLoop=1;jettySize=auto;html=1;" parent="1" source="c6ffai6J4IfeZ5ahLLE4-17" target="6ihYYFcUG0NwCiwKLXXo-1" edge="1">
          <mxGeometry relative="1" as="geometry" />
        </mxCell>
        <mxCell id="6ihYYFcUG0NwCiwKLXXo-3" value="审核通过" style="edgeLabel;html=1;align=center;verticalAlign=middle;resizable=0;points=[];" parent="6ihYYFcUG0NwCiwKLXXo-2" vertex="1" connectable="0">
          <mxGeometry x="-0.2333" y="2" relative="1" as="geometry">
            <mxPoint as="offset" />
          </mxGeometry>
        </mxCell>
        <mxCell id="c6ffai6J4IfeZ5ahLLE4-17" value="FEATURE_AUDIT" style="rounded=0;whiteSpace=wrap;html=1;" parent="1" vertex="1">
          <mxGeometry x="670" y="130" width="120" height="60" as="geometry" />
        </mxCell>
        <mxCell id="BjAoX8LeDENds40LJaEB-2" value="" style="edgeStyle=orthogonalEdgeStyle;rounded=0;orthogonalLoop=1;jettySize=auto;html=1;entryX=0.25;entryY=1;entryDx=0;entryDy=0;" parent="1" source="c6ffai6J4IfeZ5ahLLE4-19" target="c6ffai6J4IfeZ5ahLLE4-1" edge="1">
          <mxGeometry relative="1" as="geometry">
            <mxPoint x="190" y="360" as="targetPoint" />
            <Array as="points">
              <mxPoint x="300" y="290" />
              <mxPoint x="300" y="290" />
            </Array>
          </mxGeometry>
        </mxCell>
        <mxCell id="BjAoX8LeDENds40LJaEB-3" value="编辑&lt;br&gt;提交" style="edgeLabel;html=1;align=center;verticalAlign=middle;resizable=0;points=[];" parent="BjAoX8LeDENds40LJaEB-2" vertex="1" connectable="0">
          <mxGeometry y="3" relative="1" as="geometry">
            <mxPoint as="offset" />
          </mxGeometry>
        </mxCell>
        <mxCell id="c6ffai6J4IfeZ5ahLLE4-19" value="REJECT" style="rounded=0;whiteSpace=wrap;html=1;" parent="1" vertex="1">
          <mxGeometry x="270" y="330" width="120" height="60" as="geometry" />
        </mxCell>
        <mxCell id="c6ffai6J4IfeZ5ahLLE4-28" value="创建check任务" style="shape=document;whiteSpace=wrap;html=1;boundedLbl=1;rounded=0;dashed=1;" parent="1" vertex="1">
          <mxGeometry x="330" y="-10" width="120" height="60" as="geometry" />
        </mxCell>
        <mxCell id="c6ffai6J4IfeZ5ahLLE4-29" value="" style="edgeStyle=orthogonalEdgeStyle;rounded=0;orthogonalLoop=1;jettySize=auto;html=1;entryX=0.5;entryY=0.9;entryDx=0;entryDy=0;entryPerimeter=0;exitX=0.5;exitY=0;exitDx=0;exitDy=0;" parent="1" source="c6ffai6J4IfeZ5ahLLE4-1" target="c6ffai6J4IfeZ5ahLLE4-28" edge="1">
          <mxGeometry relative="1" as="geometry">
            <mxPoint x="340" y="140" as="sourcePoint" />
            <mxPoint x="250" y="60" as="targetPoint" />
            <Array as="points">
              <mxPoint x="320" y="130" />
              <mxPoint x="320" y="90" />
              <mxPoint x="390" y="90" />
            </Array>
          </mxGeometry>
        </mxCell>
        <mxCell id="mTs4i2KGGRuWr2ubLSMz-4" value="do" style="edgeLabel;html=1;align=center;verticalAlign=middle;resizable=0;points=[];" parent="c6ffai6J4IfeZ5ahLLE4-29" vertex="1" connectable="0">
          <mxGeometry x="0.6747" y="-1" relative="1" as="geometry">
            <mxPoint as="offset" />
          </mxGeometry>
        </mxCell>
        <mxCell id="c6ffai6J4IfeZ5ahLLE4-33" value="" style="edgeStyle=orthogonalEdgeStyle;rounded=0;orthogonalLoop=1;jettySize=auto;html=1;" parent="1" source="c6ffai6J4IfeZ5ahLLE4-30" target="c6ffai6J4IfeZ5ahLLE4-32" edge="1">
          <mxGeometry relative="1" as="geometry" />
        </mxCell>
        <mxCell id="c6ffai6J4IfeZ5ahLLE4-35" value="导入成功" style="edgeLabel;html=1;align=center;verticalAlign=middle;resizable=0;points=[];" parent="c6ffai6J4IfeZ5ahLLE4-33" vertex="1" connectable="0">
          <mxGeometry x="-0.1556" y="1" relative="1" as="geometry">
            <mxPoint as="offset" />
          </mxGeometry>
        </mxCell>
        <mxCell id="c6ffai6J4IfeZ5ahLLE4-37" value="" style="edgeStyle=orthogonalEdgeStyle;rounded=0;orthogonalLoop=1;jettySize=auto;html=1;" parent="1" source="c6ffai6J4IfeZ5ahLLE4-30" target="c6ffai6J4IfeZ5ahLLE4-36" edge="1">
          <mxGeometry relative="1" as="geometry" />
        </mxCell>
        <mxCell id="mTs4i2KGGRuWr2ubLSMz-2" value="do" style="edgeLabel;html=1;align=center;verticalAlign=middle;resizable=0;points=[];" parent="c6ffai6J4IfeZ5ahLLE4-37" vertex="1" connectable="0">
          <mxGeometry x="-0.0889" y="1" relative="1" as="geometry">
            <mxPoint as="offset" />
          </mxGeometry>
        </mxCell>
        <mxCell id="c6ffai6J4IfeZ5ahLLE4-30" value="INSERTING" style="rounded=0;whiteSpace=wrap;html=1;" parent="1" vertex="1">
          <mxGeometry x="1310" y="130" width="120" height="60" as="geometry" />
        </mxCell>
        <mxCell id="c6ffai6J4IfeZ5ahLLE4-39" value="" style="edgeStyle=orthogonalEdgeStyle;rounded=0;orthogonalLoop=1;jettySize=auto;html=1;" parent="1" source="c6ffai6J4IfeZ5ahLLE4-32" target="yQFtyR75cNQhKtgoben6-1" edge="1">
          <mxGeometry relative="1" as="geometry" />
        </mxCell>
        <mxCell id="mTs4i2KGGRuWr2ubLSMz-1" value="post" style="edgeLabel;html=1;align=center;verticalAlign=middle;resizable=0;points=[];" parent="c6ffai6J4IfeZ5ahLLE4-39" vertex="1" connectable="0">
          <mxGeometry x="-0.0667" y="-1" relative="1" as="geometry">
            <mxPoint as="offset" />
          </mxGeometry>
        </mxCell>
        <mxCell id="c6ffai6J4IfeZ5ahLLE4-32" value="RUNNING" style="rounded=0;whiteSpace=wrap;html=1;" parent="1" vertex="1">
          <mxGeometry x="1520" y="130" width="120" height="60" as="geometry" />
        </mxCell>
        <mxCell id="c6ffai6J4IfeZ5ahLLE4-36" value="tesla导入" style="shape=document;whiteSpace=wrap;html=1;boundedLbl=1;rounded=0;dashed=1;" parent="1" vertex="1">
          <mxGeometry x="1310" y="-10" width="120" height="60" as="geometry" />
        </mxCell>
        <mxCell id="c6ffai6J4IfeZ5ahLLE4-38" value="发布到智能人场" style="shape=document;whiteSpace=wrap;html=1;boundedLbl=1;rounded=0;dashed=1;" parent="1" vertex="1">
          <mxGeometry x="1600" y="-10" width="120" height="60" as="geometry" />
        </mxCell>
        <mxCell id="yQFtyR75cNQhKtgoben6-1" value="更新atlas_feature状态" style="shape=document;whiteSpace=wrap;html=1;boundedLbl=1;rounded=0;dashed=1;" parent="1" vertex="1">
          <mxGeometry x="1460" y="-10" width="120" height="60" as="geometry" />
        </mxCell>
        <mxCell id="yQFtyR75cNQhKtgoben6-6" value="" style="edgeStyle=orthogonalEdgeStyle;rounded=0;orthogonalLoop=1;jettySize=auto;html=1;entryX=0.55;entryY=0.783;entryDx=0;entryDy=0;entryPerimeter=0;exitX=0.5;exitY=0;exitDx=0;exitDy=0;" parent="1" source="c6ffai6J4IfeZ5ahLLE4-32" target="c6ffai6J4IfeZ5ahLLE4-38" edge="1">
          <mxGeometry relative="1" as="geometry">
            <mxPoint x="1590" y="140" as="sourcePoint" />
            <mxPoint x="1530" y="40" as="targetPoint" />
          </mxGeometry>
        </mxCell>
        <mxCell id="yQFtyR75cNQhKtgoben6-7" value="post" style="edgeLabel;html=1;align=center;verticalAlign=middle;resizable=0;points=[];" parent="yQFtyR75cNQhKtgoben6-6" vertex="1" connectable="0">
          <mxGeometry x="-0.0667" y="-1" relative="1" as="geometry">
            <mxPoint as="offset" />
          </mxGeometry>
        </mxCell>
        <mxCell id="6ihYYFcUG0NwCiwKLXXo-5" value="" style="edgeStyle=orthogonalEdgeStyle;rounded=0;orthogonalLoop=1;jettySize=auto;html=1;" parent="1" source="6ihYYFcUG0NwCiwKLXXo-1" target="6ihYYFcUG0NwCiwKLXXo-4" edge="1">
          <mxGeometry relative="1" as="geometry" />
        </mxCell>
        <mxCell id="6ihYYFcUG0NwCiwKLXXo-6" value="导入成功" style="edgeLabel;html=1;align=center;verticalAlign=middle;resizable=0;points=[];" parent="6ihYYFcUG0NwCiwKLXXo-5" vertex="1" connectable="0">
          <mxGeometry x="-0.12" y="-1" relative="1" as="geometry">
            <mxPoint as="offset" />
          </mxGeometry>
        </mxCell>
        <mxCell id="6ihYYFcUG0NwCiwKLXXo-1" value="TEST_INSERTING" style="rounded=0;whiteSpace=wrap;html=1;" parent="1" vertex="1">
          <mxGeometry x="880" y="130" width="120" height="60" as="geometry" />
        </mxCell>
        <mxCell id="6ihYYFcUG0NwCiwKLXXo-7" value="" style="edgeStyle=orthogonalEdgeStyle;rounded=0;orthogonalLoop=1;jettySize=auto;html=1;" parent="1" source="6ihYYFcUG0NwCiwKLXXo-4" target="c6ffai6J4IfeZ5ahLLE4-30" edge="1">
          <mxGeometry relative="1" as="geometry" />
        </mxCell>
        <mxCell id="6ihYYFcUG0NwCiwKLXXo-8" value="审核通过" style="edgeLabel;html=1;align=center;verticalAlign=middle;resizable=0;points=[];" parent="6ihYYFcUG0NwCiwKLXXo-7" vertex="1" connectable="0">
          <mxGeometry x="-0.04" relative="1" as="geometry">
            <mxPoint as="offset" />
          </mxGeometry>
        </mxCell>
        <mxCell id="6ihYYFcUG0NwCiwKLXXo-16" value="" style="edgeStyle=orthogonalEdgeStyle;rounded=0;orthogonalLoop=1;jettySize=auto;html=1;" parent="1" source="6ihYYFcUG0NwCiwKLXXo-4" target="6ihYYFcUG0NwCiwKLXXo-15" edge="1">
          <mxGeometry relative="1" as="geometry" />
        </mxCell>
        <mxCell id="6ihYYFcUG0NwCiwKLXXo-17" value="post" style="edgeLabel;html=1;align=center;verticalAlign=middle;resizable=0;points=[];" parent="6ihYYFcUG0NwCiwKLXXo-16" vertex="1" connectable="0">
          <mxGeometry x="-0.05" y="-3" relative="1" as="geometry">
            <mxPoint as="offset" />
          </mxGeometry>
        </mxCell>
        <mxCell id="6ihYYFcUG0NwCiwKLXXo-4" value="TEST_RUNNING" style="rounded=0;whiteSpace=wrap;html=1;" parent="1" vertex="1">
          <mxGeometry x="1090" y="130" width="120" height="60" as="geometry" />
        </mxCell>
        <mxCell id="6ihYYFcUG0NwCiwKLXXo-12" value="" style="edgeStyle=orthogonalEdgeStyle;rounded=0;orthogonalLoop=1;jettySize=auto;html=1;entryX=1;entryY=0.5;entryDx=0;entryDy=0;exitX=0.5;exitY=1;exitDx=0;exitDy=0;" parent="1" source="6ihYYFcUG0NwCiwKLXXo-4" target="c6ffai6J4IfeZ5ahLLE4-19" edge="1">
          <mxGeometry relative="1" as="geometry">
            <mxPoint x="630" y="370" as="targetPoint" />
            <Array as="points">
              <mxPoint x="1150" y="360" />
            </Array>
            <mxPoint x="1171" y="201.01999999999998" as="sourcePoint" />
          </mxGeometry>
        </mxCell>
        <mxCell id="6ihYYFcUG0NwCiwKLXXo-14" value="驳回" style="edgeLabel;html=1;align=center;verticalAlign=middle;resizable=0;points=[];" parent="6ihYYFcUG0NwCiwKLXXo-12" vertex="1" connectable="0">
          <mxGeometry x="-0.8366" y="2" relative="1" as="geometry">
            <mxPoint as="offset" />
          </mxGeometry>
        </mxCell>
        <mxCell id="6ihYYFcUG0NwCiwKLXXo-15" value="发布到测试环境&lt;br&gt;智能人场" style="shape=document;whiteSpace=wrap;html=1;boundedLbl=1;rounded=0;dashed=1;" parent="1" vertex="1">
          <mxGeometry x="1090" y="-10" width="120" height="60" as="geometry" />
        </mxCell>
        <mxCell id="F8pmwGIE2MLGV_qBVy-j-1" value="PRE_SUBMIT" style="rounded=0;whiteSpace=wrap;html=1;" vertex="1" parent="1">
          <mxGeometry x="270" y="440" width="120" height="60" as="geometry" />
        </mxCell>
        <mxCell id="F8pmwGIE2MLGV_qBVy-j-2" value="" style="edgeStyle=orthogonalEdgeStyle;rounded=0;orthogonalLoop=1;jettySize=auto;html=1;entryX=1;entryY=0.5;entryDx=0;entryDy=0;exitX=0.5;exitY=1;exitDx=0;exitDy=0;" edge="1" parent="1" source="c6ffai6J4IfeZ5ahLLE4-15" target="F8pmwGIE2MLGV_qBVy-j-1">
          <mxGeometry relative="1" as="geometry">
            <mxPoint x="400" y="170" as="sourcePoint" />
            <mxPoint x="400" y="480" as="targetPoint" />
            <Array as="points">
              <mxPoint x="530" y="470" />
            </Array>
          </mxGeometry>
        </mxCell>
        <mxCell id="F8pmwGIE2MLGV_qBVy-j-3" value="撤销" style="edgeLabel;html=1;align=center;verticalAlign=middle;resizable=0;points=[];" vertex="1" connectable="0" parent="F8pmwGIE2MLGV_qBVy-j-2">
          <mxGeometry relative="1" as="geometry">
            <mxPoint as="offset" />
          </mxGeometry>
        </mxCell>
        <mxCell id="F8pmwGIE2MLGV_qBVy-j-4" value="" style="edgeStyle=orthogonalEdgeStyle;rounded=0;orthogonalLoop=1;jettySize=auto;html=1;entryX=1;entryY=0.5;entryDx=0;entryDy=0;exitX=0.5;exitY=1;exitDx=0;exitDy=0;" edge="1" parent="1" source="c6ffai6J4IfeZ5ahLLE4-17" target="F8pmwGIE2MLGV_qBVy-j-1">
          <mxGeometry relative="1" as="geometry">
            <mxPoint x="540" y="200" as="sourcePoint" />
            <mxPoint x="400" y="480" as="targetPoint" />
            <Array as="points">
              <mxPoint x="730" y="470" />
            </Array>
          </mxGeometry>
        </mxCell>
        <mxCell id="F8pmwGIE2MLGV_qBVy-j-6" value="撤销" style="edgeLabel;html=1;align=center;verticalAlign=middle;resizable=0;points=[];" vertex="1" connectable="0" parent="F8pmwGIE2MLGV_qBVy-j-4">
          <mxGeometry x="-0.3548" relative="1" as="geometry">
            <mxPoint as="offset" />
          </mxGeometry>
        </mxCell>
        <mxCell id="F8pmwGIE2MLGV_qBVy-j-8" value="" style="edgeStyle=orthogonalEdgeStyle;rounded=0;orthogonalLoop=1;jettySize=auto;html=1;exitX=0;exitY=0.5;exitDx=0;exitDy=0;" edge="1" parent="1" source="F8pmwGIE2MLGV_qBVy-j-1">
          <mxGeometry relative="1" as="geometry">
            <mxPoint x="300" y="192" as="targetPoint" />
            <Array as="points">
              <mxPoint x="220" y="470" />
              <mxPoint x="220" y="310" />
              <mxPoint x="300" y="310" />
            </Array>
            <mxPoint x="310" y="340" as="sourcePoint" />
          </mxGeometry>
        </mxCell>
        <mxCell id="F8pmwGIE2MLGV_qBVy-j-10" value="编辑&lt;br&gt;提交" style="edgeLabel;html=1;align=center;verticalAlign=middle;resizable=0;points=[];" vertex="1" connectable="0" parent="F8pmwGIE2MLGV_qBVy-j-8">
          <mxGeometry x="-0.3627" y="-1" relative="1" as="geometry">
            <mxPoint as="offset" />
          </mxGeometry>
        </mxCell>
      </root>
    </mxGraphModel>
  </diagram>
</mxfile>
